<?xml version="1.0" encoding="UTF-8"?>
<!DOCTYPE svg PUBLIC "-//W3C//DTD SVG 1.1//EN" "http://www.w3.org/Graphics/SVG/1.1/DTD/svg11.dtd">
<!-- Creator: CorelDRAW X5 -->
<svg xmlns="http://www.w3.org/2000/svg" xml:space="preserve" width="130mm" height="130mm" style="shape-rendering:geometricPrecision; text-rendering:geometricPrecision; image-rendering:optimizeQuality; fill-rule:evenodd; clip-rule:evenodd"
viewBox="0 0 13000 13000"
 xmlns:xlink="http://www.w3.org/1999/xlink">
 <defs>
  <style type="text/css">
   <![CDATA[
    .fil1 {fill:#FEFEFE}
    .fil0 {fill:#FFF000}
    .fil4 {fill:black}
    .fil2 {fill:#007E2D}
    .fil3 {fill:#FEFEFE;fill-rule:nonzero}
   ]]>
  </style>
 </defs>
 <g id="Layer_x0020_1">
  <metadata id="CorelCorpID_0Corel-Layer"/>
  <path class="fil0" d="M6500 0c3590,0 6500,2910 6500,6500 0,3590 -2910,6500 -6500,6500 -3590,0 -6500,-2910 -6500,-6500 0,-3590 2910,-6500 6500,-6500z"/>
  <path class="fil1" d="M6500 553c3285,0 5947,2663 5947,5947 0,3285 -2663,5947 -5947,5947 -3285,0 -5947,-2663 -5947,-5947 0,-3285 2663,-5947 5947,-5947z"/>
  <path class="fil2" d="M6500 905c3090,0 5595,2505 5595,5595 0,3090 -2505,5595 -5595,5595 -3090,0 -5595,-2505 -5595,-5595 0,-3090 2505,-5595 5595,-5595z"/>
  <polygon class="fil0" points="6500,4106 6779,4974 7686,4972 6951,5507 7233,6374 6500,5836 5767,6374 6049,5507 5314,4972 6221,4974 "/>
  <polygon class="fil0" points="8720,4703 8862,5146 9325,5145 8950,5418 9094,5860 8720,5586 8346,5860 8490,5418 8114,5145 8577,5146 "/>
  <polygon class="fil0" points="10071,4692 10213,5135 10676,5134 10301,5407 10445,5849 10071,5575 9697,5849 9841,5407 9465,5134 9928,5135 "/>
  <polygon class="fil0" points="8159,5665 8301,6108 8764,6107 8389,6380 8533,6823 8159,6548 7784,6823 7928,6380 7553,6107 8016,6108 "/>
  <polygon class="fil0" points="7888,6812 8031,7255 8494,7254 8119,7527 8263,7969 7888,7695 7514,7969 7658,7527 7283,7254 7746,7255 "/>
  <polygon class="fil0" points="4280,4703 4138,5146 3675,5145 4050,5418 3906,5860 4280,5586 4654,5860 4510,5418 4886,5145 4423,5146 "/>
  <polygon class="fil0" points="2929,4692 2787,5135 2324,5134 2699,5407 2555,5849 2929,5575 3303,5849 3159,5407 3535,5134 3072,5135 "/>
  <polygon class="fil0" points="4841,5665 4699,6108 4236,6107 4611,6380 4467,6823 4841,6548 5216,6823 5072,6380 5447,6107 4984,6108 "/>
  <polygon class="fil0" points="5112,6812 4969,7255 4506,7254 4881,7527 4737,7969 5112,7695 5486,7969 5342,7527 5717,7254 5254,7255 "/>
  <polygon class="fil1" points="1899,4049 2590,3164 2723,3268 2032,4153 "/>
  <polygon class="fil1" points="1976,4587 2900,3405 3033,3509 2110,4691 "/>
  <polygon class="fil1" points="2516,4521 3207,3637 3340,3741 2649,4625 "/>
  <polygon class="fil1" points="11101,4049 10410,3164 10277,3268 10968,4153 "/>
  <polygon class="fil1" points="11024,4587 10100,3405 9967,3509 10891,4691 "/>
  <polygon class="fil1" points="10484,4521 9793,3637 9660,3741 10351,4625 "/>
  <path class="fil3" d="M3034 2466l309 -243 814 1035 -309 243 -814 -1035zm1158 331l325 -187 182 317 -325 187 -182 -317zm305 -1229l617 -209c134,-46 246,-47 336,-3 89,44 155,127 196,250 43,126 40,237 -9,333 -49,96 -148,169 -298,220l-203 69 156 462 -372 126 -423 -1247zm553 407l91 -31c72,-24 118,-55 138,-90 20,-36 24,-74 10,-114 -13,-39 -37,-68 -72,-87 -34,-19 -86,-16 -156,7l-106 36 94 279zm702 229l372 -47 46 363 -372 47 -46 -363zm825 -1042l362 46 380 781 91 -721 367 47 -166 1306 -367 -47 -378 -777 -91 717 -365 -46 166 -1306zm1394 1228l349 138 -134 340 -349 -138 134 -340zm1918 20l308 242 -484 617c-48,61 -103,112 -164,151 -61,40 -127,65 -198,75 -71,10 -135,6 -191,-11 -78,-24 -159,-69 -243,-135 -48,-38 -99,-83 -150,-135 -52,-52 -89,-104 -111,-155 -22,-51 -34,-109 -35,-172 -2,-64 8,-121 28,-171 33,-81 69,-147 109,-197l484 -617 308 242 -496 632c-44,56 -64,112 -59,167 5,56 34,104 88,146 53,41 106,58 161,51 54,-8 104,-40 149,-97l496 -632z"/>
  <polygon class="fil4" points="5684,7678 6542,7531 6846,7667 6846,8923 5949,9072 5861,9034 5860,7807 6744,7662 6695,7639 5837,7781 5837,9017 5802,9002 5802,7753 6641,7617 6590,7594 5775,7729 5776,8989 5683,8950 "/>
  <polygon class="fil1" points="5965,7853 6789,7711 6789,8881 5966,9022 "/>
  <polygon class="fil1" points="5860,7807 6744,7662 6695,7639 5837,7781 5837,9017 5861,9034 "/>
  <polygon class="fil1" points="5802,7753 6641,7617 6590,7594 5775,7729 5776,8989 5802,9002 "/>
  <polygon class="fil4" points="6144,8062 7002,7915 7306,8051 7306,9308 6409,9456 6321,9418 6321,8192 7204,8046 7155,8023 6298,8166 6297,9401 6262,9386 6262,8137 7101,8002 7050,7978 6235,8113 6236,9373 6143,9334 "/>
  <polygon class="fil1" points="6426,8238 7249,8095 7249,9265 6427,9406 "/>
  <polygon class="fil1" points="6321,8192 7204,8046 7155,8023 6298,8166 6297,9401 6321,9418 "/>
  <polygon class="fil1" points="6262,8137 7101,8002 7050,7978 6235,8113 6236,9373 6262,9386 "/>
  <path class="fil1" d="M7240 11409c55,15 81,-21 80,-108 -242,-239 -477,-471 -704,-696l5 -5c483,92 1049,-52 1698,-432 0,0 -387,53 -1160,160 660,-99 1311,-342 1952,-729 0,0 -408,54 -1223,163 716,-106 1326,-363 1832,-769 0,0 -395,49 -1186,146 666,-63 1235,-326 1706,-789 0,0 -382,52 -1146,156 678,-109 1187,-343 1513,-726 0,0 -326,46 -978,137 589,-84 1019,-321 1289,-712 0,0 -232,33 -695,100 437,-54 732,-238 883,-552 0,0 -128,17 -383,51 255,-76 438,-240 552,-492 0,0 -104,27 -312,80 319,-90 485,-367 499,-831 0,0 -1643,1647 -4962,4928 -3319,-3281 -4962,-4928 -4962,-4928 14,464 180,741 499,831 -208,-53 -312,-80 -312,-80 113,252 297,416 552,492 -255,-34 -383,-51 -383,-51 152,314 446,498 883,552 -463,-67 -695,-100 -695,-100 270,391 700,628 1289,712 -652,-91 -978,-137 -978,-137 326,383 836,617 1513,726 -764,-104 -1146,-156 -1146,-156 472,463 1040,726 1706,789 -791,-97 -1186,-146 -1186,-146 506,406 1117,662 1832,769 -816,-109 -1223,-163 -1223,-163 641,387 1292,630 1952,729 -774,-107 -1160,-160 -1160,-160 649,379 1215,523 1698,432l5 5c-227,224 -462,456 -704,696 -1,87 25,123 80,108 49,-11 296,-240 740,-687 444,447 690,676 740,687z"/>
 </g>
</svg>
